<svg xmlns="http://www.w3.org/2000/svg" viewBox="0 0 96 96" role="img" aria-labelledby="title desc">
  <title id="title">Harbor Dogs Club mark</title>
  <desc id="desc">A simple local club badge with dock lines, a block marker, and a dog profile.</desc>
  <rect width="96" height="96" rx="24" fill="#17384A"/>
  <path d="M18 27h60M18 69h60" stroke="#D8C6A5" stroke-width="5" stroke-linecap="round"/>
  <path d="M26 24v48M48 24v48M70 24v48" stroke="#3F7188" stroke-width="3" stroke-linecap="round" opacity=".75"/>
  <circle cx="48" cy="48" r="25" fill="#FAF6EE"/>
  <path d="M34 53c0-10 7-17 18-17h8l6 7-6 7h-7l-5 9H38c-2 0-4-2-4-6Z" fill="#B9824A"/>
  <path d="M38 37c-4-6-1-12 5-11 4 1 7 5 8 10" fill="#B9824A"/>
  <circle cx="58" cy="43" r="2.4" fill="#243033"/>
  <path d="M37 61c5 5 16 5 22 0" stroke="#C95746" stroke-width="4" stroke-linecap="round"/>
</svg>
