<svg xmlns="http://www.w3.org/2000/svg" viewBox="0 0 1400 620" role="img" aria-labelledby="title desc">
  <title id="title">Nightjar clubhouse table tennis scene</title>
  <desc id="desc">An illustrated late-night table tennis hall with green tables, warm lights, players, score tabs, net grids, and ball-path arcs.</desc>
  <defs>
    <linearGradient id="room" x1="0" x2="1" y1="0" y2="1"><stop offset="0" stop-color="#10131A"/><stop offset="0.48" stop-color="#162031"/><stop offset="1" stop-color="#0E6B4F"/></linearGradient>
    <linearGradient id="table" x1="0" x2="1"><stop offset="0" stop-color="#0A4E39"/><stop offset="1" stop-color="#0E6B4F"/></linearGradient>
    <filter id="glow" x="-50%" y="-50%" width="200%" height="200%"><feGaussianBlur stdDeviation="18" result="blur"/><feMerge><feMergeNode in="blur"/><feMergeNode in="SourceGraphic"/></feMerge></filter>
  </defs>
  <rect width="1400" height="620" fill="url(#room)"/>
  <path d="M0 466 C190 418 337 438 520 458 C752 482 882 416 1110 430 C1222 437 1320 470 1400 502 L1400 620 L0 620 Z" fill="#0B0E14" opacity="0.75"/>
  <g opacity="0.18" stroke="#F7F3E8" stroke-width="2"><path d="M96 0v620M214 0v620M332 0v620M450 0v620M568 0v620M686 0v620M804 0v620M922 0v620M1040 0v620M1158 0v620M1276 0v620"/><path d="M0 92h1400M0 184h1400M0 276h1400M0 368h1400M0 460h1400M0 552h1400"/></g>
  <g filter="url(#glow)"><circle cx="186" cy="100" r="48" fill="#F2C14E" opacity="0.82"/><circle cx="702" cy="72" r="38" fill="#F2C14E" opacity="0.74"/><circle cx="1164" cy="116" r="54" fill="#F2C14E" opacity="0.76"/></g>
  <g fill="none" stroke="#F2C14E" stroke-width="5" stroke-linecap="round" opacity="0.82"><path d="M430 142 C534 56 698 58 806 150" stroke-dasharray="12 18"/><path d="M822 230 C930 162 1042 174 1134 254" stroke-dasharray="10 16"/><path d="M194 292 C290 222 398 236 478 308" stroke-dasharray="9 15"/></g>
  <g><circle cx="808" cy="150" r="14" fill="#F7F3E8"/><circle cx="1138" cy="254" r="12" fill="#F7F3E8"/><circle cx="482" cy="309" r="10" fill="#F7F3E8"/></g>
  <g transform="translate(352 300)"><polygon points="0,86 506,18 720,126 166,222" fill="#06130F" opacity="0.55"/><polygon points="36,52 520,0 674,78 144,150" fill="url(#table)" stroke="#F7F3E8" stroke-width="5"/><path d="M278 26 L386 117" stroke="#F7F3E8" stroke-width="4" opacity="0.85"/><path d="M35 52 L145 151" stroke="#F7F3E8" stroke-width="3" opacity="0.7"/><path d="M520 0 L674 78" stroke="#F7F3E8" stroke-width="3" opacity="0.7"/><path d="M344 18 L455 106" stroke="#F7F3E8" stroke-width="8" opacity="0.95"/><g stroke="#F7F3E8" stroke-width="2" opacity="0.54"><path d="M356 28 L466 116"/><path d="M369 24 L479 112"/><path d="M382 21 L492 109"/><path d="M396 18 L506 106"/><path d="M410 15 L520 103"/></g><g fill="#10131A"><rect x="126" y="150" width="18" height="100" rx="8"/><rect x="618" y="78" width="18" height="112" rx="8"/></g></g>
  <g transform="translate(260 232)"><circle cx="42" cy="38" r="31" fill="#F7F3E8"/><path d="M35 72 C18 112 10 150 16 191" stroke="#F7F3E8" stroke-width="22" stroke-linecap="round"/><path d="M54 84 C104 96 135 124 158 160" stroke="#F7F3E8" stroke-width="17" stroke-linecap="round"/><circle cx="176" cy="178" r="24" fill="#E0443E"/><rect x="160" y="168" width="58" height="16" rx="8" fill="#10131A" transform="rotate(23 160 168)"/></g>
  <g transform="translate(980 200)"><circle cx="48" cy="40" r="30" fill="#F2C14E"/><path d="M43 75 C58 118 52 154 36 194" stroke="#F2C14E" stroke-width="22" stroke-linecap="round"/><path d="M33 90 C-10 112 -42 145 -58 184" stroke="#F2C14E" stroke-width="17" stroke-linecap="round"/><circle cx="-76" cy="202" r="23" fill="#E0443E"/><rect x="-104" y="196" width="58" height="16" rx="8" fill="#10131A" transform="rotate(-28 -104 196)"/></g>
  <g transform="translate(1040 58)"><rect width="174" height="86" rx="12" fill="#10131A" stroke="#F2C14E" stroke-width="4"/><rect x="16" y="16" width="60" height="54" rx="8" fill="#0E6B4F"/><rect x="98" y="16" width="60" height="54" rx="8" fill="#0E6B4F"/><text x="46" y="53" text-anchor="middle" font-family="monospace" font-weight="900" font-size="34" fill="#F2C14E">21</text><text x="128" y="53" text-anchor="middle" font-family="monospace" font-weight="900" font-size="34" fill="#F2C14E">18</text></g>
  <g transform="translate(96 388)"><rect width="252" height="86" rx="18" fill="#10131A" opacity="0.88" stroke="#F7F3E8" stroke-opacity="0.18"/><text x="24" y="36" font-family="monospace" font-weight="800" font-size="17" fill="#F2C14E">OPEN PLAY</text><text x="24" y="65" font-family="Arial, sans-serif" font-weight="700" font-size="20" fill="#F7F3E8">8 tables after 8:30</text></g>
</svg>
