<svg xmlns="http://www.w3.org/2000/svg" viewBox="0 0 640 460" role="img" aria-labelledby="title desc">
  <title id="title">Linden Gear shopfront illustration</title>
  <desc id="desc">A green neighborhood bicycle repair shopfront with a sidewalk bike rack.</desc>
  <rect width="640" height="460" fill="#FFF9EC"/>
  <rect x="38" y="78" width="564" height="300" rx="10" fill="#2F5D46" stroke="#1F2421" stroke-width="10"/>
  <rect x="70" y="116" width="500" height="70" fill="#F3E8D2" stroke="#1F2421" stroke-width="7"/>
  <text x="320" y="162" text-anchor="middle" font-family="Arial, sans-serif" font-size="34" font-weight="900" fill="#1F2421">LINDEN GEAR</text>
  <rect x="86" y="220" width="156" height="158" fill="#2F80A7" stroke="#1F2421" stroke-width="8"/>
  <rect x="275" y="218" width="250" height="160" fill="#FFF9EC" stroke="#1F2421" stroke-width="8"/>
  <path d="M102 336h120M304 284c36-30 85-30 122 0M316 322h168" stroke="#1F2421" stroke-width="9" stroke-linecap="round" fill="none"/>
  <circle cx="350" cy="332" r="42" fill="none" stroke="#1F2421" stroke-width="9"/>
  <circle cx="466" cy="332" r="42" fill="none" stroke="#1F2421" stroke-width="9"/>
  <path d="M350 332l38-58 42 58h-80l38-58 78 0" stroke="#F26A2E" stroke-width="8" stroke-linejoin="round" fill="none"/>
  <rect x="95" y="246" width="118" height="54" fill="#F26A2E" stroke="#1F2421" stroke-width="5"/>
  <text x="154" y="280" text-anchor="middle" font-family="Courier New, monospace" font-size="17" font-weight="700" fill="#1F2421">OPEN BENCH</text>
  <rect x="0" y="378" width="640" height="82" fill="#B9854D"/>
  <path d="M54 404h530" stroke="#1F2421" stroke-width="8" stroke-linecap="round"/>
</svg>
