<svg xmlns="http://www.w3.org/2000/svg" viewBox="0 0 900 640" role="img" aria-labelledby="title desc">
  <title id="title">Red Lantern rehearsal room illustration</title>
  <desc id="desc">A warm brick rehearsal room with a drum kit, amplifiers, stools, and a red lantern glow.</desc>
  <defs>
    <linearGradient id="wall" x1="0" y1="0" x2="1" y2="1">
      <stop offset="0" stop-color="#4a1b18"/>
      <stop offset="0.55" stop-color="#2b1110"/>
      <stop offset="1" stop-color="#160d0c"/>
    </linearGradient>
    <radialGradient id="glow" cx="50%" cy="18%" r="44%">
      <stop offset="0" stop-color="#ffd07d" stop-opacity="0.95"/>
      <stop offset="0.35" stop-color="#c9322a" stop-opacity="0.55"/>
      <stop offset="1" stop-color="#c9322a" stop-opacity="0"/>
    </radialGradient>
    <pattern id="brick" width="92" height="42" patternUnits="userSpaceOnUse">
      <path d="M0 0h92v42H0z" fill="none"/>
      <path d="M0 0h92M0 42h92M0 21h46M46 21h46M0 0v21M46 21v21M92 0v21" stroke="#7b322a" stroke-width="3" opacity="0.45"/>
    </pattern>
  </defs>
  <rect width="900" height="640" fill="url(#wall)"/>
  <rect width="900" height="380" fill="url(#brick)" opacity="0.8"/>
  <rect width="900" height="640" fill="url(#glow)"/>
  <path d="M0 420c136-28 267-20 392 24s293 39 508-8v204H0z" fill="#251412"/>
  <path d="M86 442h728" stroke="#f2a23a" stroke-width="6" stroke-linecap="round" opacity="0.45"/>

  <g transform="translate(408 52)">
    <path d="M56 0v32" stroke="#f5ead7" stroke-width="7" stroke-linecap="round"/>
    <path d="M24 34h64l14 30H10z" fill="#21100f" stroke="#f5ead7" stroke-width="5"/>
    <path d="M20 67c0-29 72-29 72 0v72c0 31-72 31-72 0z" fill="#c9322a" stroke="#f5ead7" stroke-width="6"/>
    <path d="M35 72v68M56 68v78M77 72v68" stroke="#7d1717" stroke-width="5"/>
    <ellipse cx="56" cy="108" rx="21" ry="35" fill="#ffd07d" opacity="0.65"/>
    <path d="M27 161h58" stroke="#21100f" stroke-width="8" stroke-linecap="round"/>
  </g>

  <g transform="translate(108 272)">
    <rect x="0" y="68" width="148" height="136" rx="16" fill="#151313" stroke="#f5ead7" stroke-width="5"/>
    <rect x="18" y="88" width="112" height="44" rx="8" fill="#3a1816"/>
    <circle cx="48" cy="164" r="18" fill="#2f2a28" stroke="#8b766a" stroke-width="6"/>
    <circle cx="100" cy="164" r="18" fill="#2f2a28" stroke="#8b766a" stroke-width="6"/>
    <path d="M26 54h92v26H26z" fill="#c9322a" stroke="#21100f" stroke-width="4"/>
  </g>

  <g transform="translate(590 288)">
    <rect x="0" y="62" width="184" height="116" rx="14" fill="#151313" stroke="#f5ead7" stroke-width="5"/>
    <rect x="20" y="82" width="144" height="34" rx="7" fill="#3a1816"/>
    <circle cx="54" cy="146" r="14" fill="#2f2a28" stroke="#8b766a" stroke-width="5"/>
    <circle cx="92" cy="146" r="14" fill="#2f2a28" stroke="#8b766a" stroke-width="5"/>
    <circle cx="130" cy="146" r="14" fill="#2f2a28" stroke="#8b766a" stroke-width="5"/>
    <path d="M30 0c42 8 76 28 101 62" fill="none" stroke="#f2a23a" stroke-width="8" stroke-linecap="round"/>
  </g>

  <g transform="translate(338 286)">
    <ellipse cx="106" cy="142" rx="76" ry="33" fill="#151313" opacity="0.55"/>
    <circle cx="106" cy="95" r="58" fill="#ead8bb" stroke="#151313" stroke-width="8"/>
    <circle cx="106" cy="95" r="40" fill="#f5ead7" stroke="#8b766a" stroke-width="5"/>
    <circle cx="44" cy="72" r="30" fill="#ead8bb" stroke="#151313" stroke-width="7"/>
    <circle cx="174" cy="72" r="30" fill="#ead8bb" stroke="#151313" stroke-width="7"/>
    <path d="M42 102v88M176 102v88M106 153v72" stroke="#151313" stroke-width="7" stroke-linecap="round"/>
    <path d="M18 24h176" stroke="#f5ead7" stroke-width="7" stroke-linecap="round"/>
    <path d="M42 24l-20 36M174 24l24 36" stroke="#f5ead7" stroke-width="6" stroke-linecap="round"/>
    <circle cx="18" cy="22" r="18" fill="#f2a23a" stroke="#151313" stroke-width="5"/>
    <circle cx="198" cy="22" r="18" fill="#f2a23a" stroke="#151313" stroke-width="5"/>
  </g>

  <g transform="translate(218 462)" stroke="#f5ead7" stroke-width="7" stroke-linecap="round">
    <path d="M0 112l40-102 40 102" fill="none"/>
    <path d="M40 10v-52"/>
    <path d="M116 112l40-102 40 102" fill="none"/>
    <path d="M156 10v-52"/>
  </g>

  <g transform="translate(640 486)">
    <rect x="0" y="0" width="42" height="88" rx="8" fill="#c9322a" stroke="#151313" stroke-width="5"/>
    <rect x="78" y="0" width="42" height="88" rx="8" fill="#c9322a" stroke="#151313" stroke-width="5"/>
    <path d="M16 88h88l24 44H-10z" fill="#151313"/>
  </g>
</svg>
